<svg width="44" height="44" viewBox="0 0 44 44" fill="none" xmlns="http://www.w3.org/2000/svg">
<path d="M14.3 3.6665H29.7C35.5667 3.6665 40.3333 8.43317 40.3333 14.2998V29.6998C40.3333 32.52 39.213 35.2246 37.2189 37.2187C35.2248 39.2129 32.5201 40.3332 29.7 40.3332H14.3C8.43333 40.3332 3.66666 35.5665 3.66666 29.6998V14.2998C3.66666 11.4797 4.78696 8.77507 6.7811 6.78094C8.77523 4.7868 11.4799 3.6665 14.3 3.6665ZM13.9333 7.33317C12.1829 7.33317 10.5042 8.02853 9.26643 9.26627C8.02869 10.504 7.33333 12.1827 7.33333 13.9332V30.0665C7.33333 33.7148 10.285 36.6665 13.9333 36.6665H30.0667C31.8171 36.6665 33.4958 35.9712 34.7336 34.7334C35.9713 33.4957 36.6667 31.8169 36.6667 30.0665V13.9332C36.6667 10.2848 33.715 7.33317 30.0667 7.33317H13.9333ZM31.625 10.0832C32.2328 10.0832 32.8157 10.3246 33.2455 10.7544C33.6752 11.1842 33.9167 11.767 33.9167 12.3748C33.9167 12.9826 33.6752 13.5655 33.2455 13.9953C32.8157 14.4251 32.2328 14.6665 31.625 14.6665C31.0172 14.6665 30.4343 14.4251 30.0045 13.9953C29.5748 13.5655 29.3333 12.9826 29.3333 12.3748C29.3333 11.767 29.5748 11.1842 30.0045 10.7544C30.4343 10.3246 31.0172 10.0832 31.625 10.0832ZM22 12.8332C24.4311 12.8332 26.7627 13.7989 28.4818 15.518C30.2009 17.2371 31.1667 19.5687 31.1667 21.9998C31.1667 24.431 30.2009 26.7626 28.4818 28.4816C26.7627 30.2007 24.4311 31.1665 22 31.1665C19.5688 31.1665 17.2373 30.2007 15.5182 28.4816C13.7991 26.7626 12.8333 24.431 12.8333 21.9998C12.8333 19.5687 13.7991 17.2371 15.5182 15.518C17.2373 13.7989 19.5688 12.8332 22 12.8332ZM22 16.4998C20.5413 16.4998 19.1424 17.0793 18.1109 18.1107C17.0795 19.1422 16.5 20.5411 16.5 21.9998C16.5 23.4585 17.0795 24.8575 18.1109 25.8889C19.1424 26.9204 20.5413 27.4998 22 27.4998C23.4587 27.4998 24.8576 26.9204 25.8891 25.8889C26.9205 24.8575 27.5 23.4585 27.5 21.9998C27.5 20.5411 26.9205 19.1422 25.8891 18.1107C24.8576 17.0793 23.4587 16.4998 22 16.4998Z" fill="black"/>
</svg>
