<svg width="65" height="63" viewBox="0 0 65 63" fill="none" xmlns="http://www.w3.org/2000/svg">
<path d="M18.85 0H46.15C56.55 0 65 8.19 65 18.27V44.73C65 49.5755 63.014 54.2226 59.479 57.6488C55.9439 61.0751 51.1493 63 46.15 63H18.85C8.45 63 0 54.81 0 44.73V18.27C0 13.4245 1.98598 8.77745 5.52104 5.35116C9.0561 1.92487 13.8507 0 18.85 0ZM18.2 6.3C15.097 6.3 12.121 7.49475 9.92685 9.62141C7.73268 11.7481 6.5 14.6324 6.5 17.64V45.36C6.5 51.6285 11.7325 56.7 18.2 56.7H46.8C49.903 56.7 52.879 55.5053 55.0732 53.3786C57.2673 51.2519 58.5 48.3676 58.5 45.36V17.64C58.5 11.3715 53.2675 6.3 46.8 6.3H18.2ZM49.5625 11.025C50.6399 11.025 51.6733 11.4398 52.4351 12.1783C53.197 12.9167 53.625 13.9182 53.625 14.9625C53.625 16.0068 53.197 17.0083 52.4351 17.7467C51.6733 18.4852 50.6399 18.9 49.5625 18.9C48.4851 18.9 47.4517 18.4852 46.6899 17.7467C45.928 17.0083 45.5 16.0068 45.5 14.9625C45.5 13.9182 45.928 12.9167 46.6899 12.1783C47.4517 11.4398 48.4851 11.025 49.5625 11.025ZM32.5 15.75C36.8098 15.75 40.943 17.4094 43.9905 20.3631C47.038 23.3168 48.75 27.3228 48.75 31.5C48.75 35.6772 47.038 39.6832 43.9905 42.6369C40.943 45.5906 36.8098 47.25 32.5 47.25C28.1902 47.25 24.057 45.5906 21.0095 42.6369C17.962 39.6832 16.25 35.6772 16.25 31.5C16.25 27.3228 17.962 23.3168 21.0095 20.3631C24.057 17.4094 28.1902 15.75 32.5 15.75ZM32.5 22.05C29.9141 22.05 27.4342 23.0456 25.6057 24.8178C23.7772 26.5901 22.75 28.9937 22.75 31.5C22.75 34.0063 23.7772 36.4099 25.6057 38.1822C27.4342 39.9544 29.9141 40.95 32.5 40.95C35.0859 40.95 37.5658 39.9544 39.3943 38.1822C41.2228 36.4099 42.25 34.0063 42.25 31.5C42.25 28.9937 41.2228 26.5901 39.3943 24.8178C37.5658 23.0456 35.0859 22.05 32.5 22.05Z" fill="#FE5D9F"/>
</svg>
