<svg width="33" height="32" viewBox="0 0 33 32" fill="none" xmlns="http://www.w3.org/2000/svg">
<g clip-path="url(#clip0_49_148)">
<path d="M32.5 16C32.5 14.0302 32.112 12.0796 31.3582 10.2597C30.6044 8.43986 29.4995 6.78628 28.1066 5.3934C26.7137 4.00052 25.0601 2.89563 23.2403 2.14181C21.4204 1.38799 19.4698 1 17.5 1V4C19.8733 3.99995 22.1933 4.70362 24.1666 6.02205C26.14 7.34048 27.6781 9.21444 28.5865 11.407C29.1897 12.8632 29.5001 14.4239 29.5 16H32.5ZM2.5 13V5.5C2.5 5.10218 2.65804 4.72064 2.93934 4.43934C3.22064 4.15804 3.60218 4 4 4H11.5C11.8978 4 12.2794 4.15804 12.5607 4.43934C12.842 4.72064 13 5.10218 13 5.5V11.5C13 11.8978 12.842 12.2794 12.5607 12.5607C12.2794 12.842 11.8978 13 11.5 13H8.5C8.5 16.1826 9.76428 19.2348 12.0147 21.4853C14.2652 23.7357 17.3174 25 20.5 25V22C20.5 21.6022 20.658 21.2206 20.9393 20.9393C21.2206 20.658 21.6022 20.5 22 20.5H28C28.3978 20.5 28.7794 20.658 29.0607 20.9393C29.342 21.2206 29.5 21.6022 29.5 22V29.5C29.5 29.8978 29.342 30.2794 29.0607 30.5607C28.7794 30.842 28.3978 31 28 31H20.5C10.5595 31 2.5 22.9405 2.5 13Z" fill="black"/>
<path d="M25.8145 12.556C26.2669 13.6479 26.4998 14.8181 26.5 16H23.8C23.8 14.3291 23.1363 12.7267 21.9548 11.5452C20.7733 10.3637 19.1709 9.7 17.5 9.7V7C19.28 7.00009 21.02 7.528 22.4999 8.51695C23.9799 9.50591 25.1334 10.9115 25.8145 12.556Z" fill="black"/>
</g>
<defs>
<clipPath id="clip0_49_148">
<rect width="32" height="32" fill="white" transform="translate(0.5)"/>
</clipPath>
</defs>
</svg>
