<svg width="12" height="20" viewBox="0 0 12 20" fill="none" xmlns="http://www.w3.org/2000/svg">
<path d="M6 0.668457C3.0418 0.668457 0.643673 3.06658 0.643673 6.02479C0.645821 6.93299 0.878907 7.82584 1.09602 8.22252L6 19.3319L10.6868 8.61924H10.6843C11.1246 7.82535 11.3558 6.93258 11.3563 6.02479C11.3563 3.06658 8.9582 0.668457 6 0.668457ZM6 3.34658C6.3517 3.34658 6.69996 3.41586 7.02489 3.55045C7.34982 3.68504 7.64506 3.88232 7.89375 4.13101C8.14244 4.37971 8.33971 4.67495 8.47429 4.99989C8.60887 5.32482 8.67814 5.67308 8.67813 6.02479C8.67813 6.73507 8.39597 7.41626 7.89372 7.91851C7.39148 8.42075 6.71028 8.70291 6 8.70291C5.28972 8.70291 4.60853 8.42075 4.10628 7.91851C3.60403 7.41626 3.32188 6.73507 3.32188 6.02479C3.32188 5.3145 3.60403 4.63331 4.10628 4.13106C4.60853 3.62882 5.28972 3.34666 6 3.34666V3.34658Z" fill="black"/>
</svg>
